<mxfile host="app.diagrams.net" agent="Mozilla/5.0 (Windows NT 10.0; Win64; x64) AppleWebKit/537.36 (KHTML, like Gecko) Chrome/131.0.0.0 Safari/537.36 OPR/116.0.0.0 (Edition std-2)" version="26.0.16">
  <diagram name="Página-1" id="2L747m9HDi-1X7HfuWaY">
    <mxGraphModel grid="1" page="1" gridSize="10" guides="1" tooltips="1" connect="1" arrows="1" fold="1" pageScale="1" pageWidth="827" pageHeight="1169" math="0" shadow="0">
      <root>
        <mxCell id="0" />
        <mxCell id="1" parent="0" />
        <mxCell id="L9iWD6KSrBcmUP075xyz-1" value="Sd fazer cadastro" style="shape=umlFrame;whiteSpace=wrap;html=1;pointerEvents=0;height=30;width=100;" vertex="1" parent="1">
          <mxGeometry x="80" y="40" width="490" height="320" as="geometry" />
        </mxCell>
        <mxCell id="L9iWD6KSrBcmUP075xyz-2" value="" style="shape=umlLifeline;perimeter=lifelinePerimeter;whiteSpace=wrap;html=1;container=1;dropTarget=0;collapsible=0;recursiveResize=0;outlineConnect=0;portConstraint=eastwest;newEdgeStyle={&quot;curved&quot;:0,&quot;rounded&quot;:0};participant=umlActor;" vertex="1" parent="1">
          <mxGeometry x="130" y="80" width="20" height="250" as="geometry" />
        </mxCell>
        <mxCell id="L9iWD6KSrBcmUP075xyz-8" value="" style="html=1;points=[[0,0,0,0,5],[0,1,0,0,-5],[1,0,0,0,5],[1,1,0,0,-5]];perimeter=orthogonalPerimeter;outlineConnect=0;targetShapes=umlLifeline;portConstraint=eastwest;newEdgeStyle={&quot;curved&quot;:0,&quot;rounded&quot;:0};" vertex="1" parent="L9iWD6KSrBcmUP075xyz-2">
          <mxGeometry x="5" y="70" width="10" height="180" as="geometry" />
        </mxCell>
        <mxCell id="L9iWD6KSrBcmUP075xyz-3" value="" style="shape=umlLifeline;perimeter=lifelinePerimeter;whiteSpace=wrap;html=1;container=1;dropTarget=0;collapsible=0;recursiveResize=0;outlineConnect=0;portConstraint=eastwest;newEdgeStyle={&quot;curved&quot;:0,&quot;rounded&quot;:0};participant=umlBoundary;" vertex="1" parent="1">
          <mxGeometry x="258" y="80" width="50" height="260" as="geometry" />
        </mxCell>
        <mxCell id="L9iWD6KSrBcmUP075xyz-9" value="" style="html=1;points=[[0,0,0,0,5],[0,1,0,0,-5],[1,0,0,0,5],[1,1,0,0,-5]];perimeter=orthogonalPerimeter;outlineConnect=0;targetShapes=umlLifeline;portConstraint=eastwest;newEdgeStyle={&quot;curved&quot;:0,&quot;rounded&quot;:0};" vertex="1" parent="L9iWD6KSrBcmUP075xyz-3">
          <mxGeometry x="20" y="70" width="10" height="40" as="geometry" />
        </mxCell>
        <mxCell id="L9iWD6KSrBcmUP075xyz-24" value="" style="html=1;points=[[0,0,0,0,5],[0,1,0,0,-5],[1,0,0,0,5],[1,1,0,0,-5]];perimeter=orthogonalPerimeter;outlineConnect=0;targetShapes=umlLifeline;portConstraint=eastwest;newEdgeStyle={&quot;curved&quot;:0,&quot;rounded&quot;:0};" vertex="1" parent="L9iWD6KSrBcmUP075xyz-3">
          <mxGeometry x="20" y="180" width="10" height="30" as="geometry" />
        </mxCell>
        <mxCell id="L9iWD6KSrBcmUP075xyz-4" value="" style="shape=umlLifeline;perimeter=lifelinePerimeter;whiteSpace=wrap;html=1;container=1;dropTarget=0;collapsible=0;recursiveResize=0;outlineConnect=0;portConstraint=eastwest;newEdgeStyle={&quot;curved&quot;:0,&quot;rounded&quot;:0};participant=umlBoundary;" vertex="1" parent="1">
          <mxGeometry x="385" y="80" width="50" height="260" as="geometry" />
        </mxCell>
        <mxCell id="L9iWD6KSrBcmUP075xyz-14" value="" style="html=1;points=[[0,0,0,0,5],[0,1,0,0,-5],[1,0,0,0,5],[1,1,0,0,-5]];perimeter=orthogonalPerimeter;outlineConnect=0;targetShapes=umlLifeline;portConstraint=eastwest;newEdgeStyle={&quot;curved&quot;:0,&quot;rounded&quot;:0};" vertex="1" parent="L9iWD6KSrBcmUP075xyz-4">
          <mxGeometry x="20" y="90" width="10" height="50" as="geometry" />
        </mxCell>
        <mxCell id="L9iWD6KSrBcmUP075xyz-19" value="" style="html=1;points=[[0,0,0,0,5],[0,1,0,0,-5],[1,0,0,0,5],[1,1,0,0,-5]];perimeter=orthogonalPerimeter;outlineConnect=0;targetShapes=umlLifeline;portConstraint=eastwest;newEdgeStyle={&quot;curved&quot;:0,&quot;rounded&quot;:0};" vertex="1" parent="L9iWD6KSrBcmUP075xyz-4">
          <mxGeometry x="20" y="160" width="10" height="30" as="geometry" />
        </mxCell>
        <mxCell id="L9iWD6KSrBcmUP075xyz-5" value="Usuario" style="text;align=center;fontStyle=1;verticalAlign=middle;spacingLeft=3;spacingRight=3;rotatable=0;points=[[0,0.5],[1,0.5]];portConstraint=eastwest;html=1;fillColor=default;" vertex="1" parent="1">
          <mxGeometry x="100" y="120" width="80" height="20" as="geometry" />
        </mxCell>
        <mxCell id="L9iWD6KSrBcmUP075xyz-6" value="login" style="text;align=center;fontStyle=1;verticalAlign=middle;spacingLeft=3;spacingRight=3;strokeColor=none;rotatable=0;points=[[0,0.5],[1,0.5]];portConstraint=eastwest;html=1;fillColor=default;" vertex="1" parent="1">
          <mxGeometry x="243" y="120" width="80" height="20" as="geometry" />
        </mxCell>
        <mxCell id="L9iWD6KSrBcmUP075xyz-7" value="pag cadastro" style="text;align=center;fontStyle=1;verticalAlign=middle;spacingLeft=3;spacingRight=3;strokeColor=none;rotatable=0;points=[[0,0.5],[1,0.5]];portConstraint=eastwest;html=1;fillColor=default;" vertex="1" parent="1">
          <mxGeometry x="370" y="120" width="80" height="20" as="geometry" />
        </mxCell>
        <mxCell id="L9iWD6KSrBcmUP075xyz-10" style="edgeStyle=orthogonalEdgeStyle;rounded=0;orthogonalLoop=1;jettySize=auto;html=1;curved=0;exitX=1;exitY=0;exitDx=0;exitDy=5;exitPerimeter=0;entryX=0;entryY=0;entryDx=0;entryDy=5;entryPerimeter=0;" edge="1" parent="1" source="L9iWD6KSrBcmUP075xyz-8" target="L9iWD6KSrBcmUP075xyz-9">
          <mxGeometry relative="1" as="geometry" />
        </mxCell>
        <mxCell id="L9iWD6KSrBcmUP075xyz-11" value="Aperta o botao&amp;nbsp;&lt;div&gt;de fazer cadastro&lt;/div&gt;" style="edgeLabel;html=1;align=center;verticalAlign=middle;resizable=0;points=[];" connectable="0" vertex="1" parent="L9iWD6KSrBcmUP075xyz-10">
          <mxGeometry x="-0.0133" y="-1" relative="1" as="geometry">
            <mxPoint as="offset" />
          </mxGeometry>
        </mxCell>
        <mxCell id="L9iWD6KSrBcmUP075xyz-15" style="edgeStyle=orthogonalEdgeStyle;rounded=0;orthogonalLoop=1;jettySize=auto;html=1;curved=0;exitX=1;exitY=1;exitDx=0;exitDy=-5;exitPerimeter=0;" edge="1" parent="1" source="L9iWD6KSrBcmUP075xyz-9" target="L9iWD6KSrBcmUP075xyz-4">
          <mxGeometry relative="1" as="geometry">
            <Array as="points">
              <mxPoint x="380" y="185" />
              <mxPoint x="380" y="185" />
            </Array>
          </mxGeometry>
        </mxCell>
        <mxCell id="L9iWD6KSrBcmUP075xyz-16" value="Requisita a pag&lt;br&gt;cadastro" style="edgeLabel;html=1;align=center;verticalAlign=middle;resizable=0;points=[];" connectable="0" vertex="1" parent="L9iWD6KSrBcmUP075xyz-15">
          <mxGeometry x="-0.0123" y="1" relative="1" as="geometry">
            <mxPoint as="offset" />
          </mxGeometry>
        </mxCell>
        <mxCell id="L9iWD6KSrBcmUP075xyz-17" style="edgeStyle=orthogonalEdgeStyle;rounded=0;orthogonalLoop=1;jettySize=auto;html=1;curved=0;exitX=0;exitY=1;exitDx=0;exitDy=-5;exitPerimeter=0;" edge="1" parent="1" source="L9iWD6KSrBcmUP075xyz-14" target="L9iWD6KSrBcmUP075xyz-8">
          <mxGeometry relative="1" as="geometry">
            <Array as="points">
              <mxPoint x="405" y="210" />
            </Array>
          </mxGeometry>
        </mxCell>
        <mxCell id="L9iWD6KSrBcmUP075xyz-18" value="Requisita email e senha do usuario" style="edgeLabel;html=1;align=center;verticalAlign=middle;resizable=0;points=[];" connectable="0" vertex="1" parent="L9iWD6KSrBcmUP075xyz-17">
          <mxGeometry x="0.1273" relative="1" as="geometry">
            <mxPoint x="18" as="offset" />
          </mxGeometry>
        </mxCell>
        <mxCell id="L9iWD6KSrBcmUP075xyz-20" style="edgeStyle=orthogonalEdgeStyle;rounded=0;orthogonalLoop=1;jettySize=auto;html=1;curved=0;exitX=1;exitY=1;exitDx=0;exitDy=-5;exitPerimeter=0;entryX=0;entryY=0;entryDx=0;entryDy=5;entryPerimeter=0;" edge="1" parent="1" source="L9iWD6KSrBcmUP075xyz-8" target="L9iWD6KSrBcmUP075xyz-19">
          <mxGeometry relative="1" as="geometry">
            <Array as="points">
              <mxPoint x="145" y="245" />
            </Array>
          </mxGeometry>
        </mxCell>
        <mxCell id="L9iWD6KSrBcmUP075xyz-21" value="Preenche as informações" style="edgeLabel;html=1;align=center;verticalAlign=middle;resizable=0;points=[];" connectable="0" vertex="1" parent="L9iWD6KSrBcmUP075xyz-20">
          <mxGeometry x="0.2194" y="-2" relative="1" as="geometry">
            <mxPoint as="offset" />
          </mxGeometry>
        </mxCell>
        <mxCell id="L9iWD6KSrBcmUP075xyz-25" style="edgeStyle=orthogonalEdgeStyle;rounded=0;orthogonalLoop=1;jettySize=auto;html=1;curved=0;exitX=0;exitY=1;exitDx=0;exitDy=-5;exitPerimeter=0;entryX=1;entryY=0;entryDx=0;entryDy=5;entryPerimeter=0;" edge="1" parent="1" source="L9iWD6KSrBcmUP075xyz-19" target="L9iWD6KSrBcmUP075xyz-24">
          <mxGeometry relative="1" as="geometry" />
        </mxCell>
        <mxCell id="L9iWD6KSrBcmUP075xyz-26" value="Requisita a pagina&amp;nbsp;&lt;br&gt;de login" style="edgeLabel;html=1;align=center;verticalAlign=middle;resizable=0;points=[];" connectable="0" vertex="1" parent="L9iWD6KSrBcmUP075xyz-25">
          <mxGeometry x="0.0427" y="1" relative="1" as="geometry">
            <mxPoint x="6" y="4" as="offset" />
          </mxGeometry>
        </mxCell>
        <mxCell id="L9iWD6KSrBcmUP075xyz-27" style="edgeStyle=orthogonalEdgeStyle;rounded=0;orthogonalLoop=1;jettySize=auto;html=1;curved=0;exitX=0;exitY=1;exitDx=0;exitDy=-5;exitPerimeter=0;" edge="1" parent="1" source="L9iWD6KSrBcmUP075xyz-24" target="L9iWD6KSrBcmUP075xyz-8">
          <mxGeometry relative="1" as="geometry">
            <mxPoint x="150" y="285" as="targetPoint" />
            <Array as="points">
              <mxPoint x="180" y="285" />
              <mxPoint x="180" y="285" />
            </Array>
          </mxGeometry>
        </mxCell>
        <mxCell id="L9iWD6KSrBcmUP075xyz-28" value="Requisita as&amp;nbsp;&lt;div&gt;informações de login&lt;/div&gt;" style="edgeLabel;html=1;align=center;verticalAlign=middle;resizable=0;points=[];" connectable="0" vertex="1" parent="L9iWD6KSrBcmUP075xyz-27">
          <mxGeometry x="0.1858" y="1" relative="1" as="geometry">
            <mxPoint x="19" y="4" as="offset" />
          </mxGeometry>
        </mxCell>
        <mxCell id="L9iWD6KSrBcmUP075xyz-29" value="" style="shape=umlLifeline;perimeter=lifelinePerimeter;whiteSpace=wrap;html=1;container=1;dropTarget=0;collapsible=0;recursiveResize=0;outlineConnect=0;portConstraint=eastwest;newEdgeStyle={&quot;curved&quot;:0,&quot;rounded&quot;:0};participant=umlBoundary;" vertex="1" parent="1">
          <mxGeometry x="490" y="80" width="50" height="260" as="geometry" />
        </mxCell>
        <mxCell id="L9iWD6KSrBcmUP075xyz-36" value="" style="html=1;points=[[0,0,0,0,5],[0,1,0,0,-5],[1,0,0,0,5],[1,1,0,0,-5]];perimeter=orthogonalPerimeter;outlineConnect=0;targetShapes=umlLifeline;portConstraint=eastwest;newEdgeStyle={&quot;curved&quot;:0,&quot;rounded&quot;:0};" vertex="1" parent="L9iWD6KSrBcmUP075xyz-29">
          <mxGeometry x="20" y="240" width="10" height="20" as="geometry" />
        </mxCell>
        <mxCell id="L9iWD6KSrBcmUP075xyz-37" style="edgeStyle=orthogonalEdgeStyle;rounded=0;orthogonalLoop=1;jettySize=auto;html=1;curved=0;exitX=1;exitY=1;exitDx=0;exitDy=-5;exitPerimeter=0;" edge="1" parent="1" source="L9iWD6KSrBcmUP075xyz-30" target="L9iWD6KSrBcmUP075xyz-36">
          <mxGeometry relative="1" as="geometry">
            <Array as="points">
              <mxPoint x="460" y="325" />
              <mxPoint x="460" y="325" />
            </Array>
          </mxGeometry>
        </mxCell>
        <mxCell id="L9iWD6KSrBcmUP075xyz-38" value="Requisita a pagina inicial" style="edgeLabel;html=1;align=center;verticalAlign=middle;resizable=0;points=[];" connectable="0" vertex="1" parent="L9iWD6KSrBcmUP075xyz-37">
          <mxGeometry x="-0.0631" y="-1" relative="1" as="geometry">
            <mxPoint as="offset" />
          </mxGeometry>
        </mxCell>
        <mxCell id="L9iWD6KSrBcmUP075xyz-30" value="" style="html=1;points=[[0,0,0,0,5],[0,1,0,0,-5],[1,0,0,0,5],[1,1,0,0,-5]];perimeter=orthogonalPerimeter;outlineConnect=0;targetShapes=umlLifeline;portConstraint=eastwest;newEdgeStyle={&quot;curved&quot;:0,&quot;rounded&quot;:0};" vertex="1" parent="1">
          <mxGeometry x="278" y="300" width="10" height="30" as="geometry" />
        </mxCell>
        <mxCell id="L9iWD6KSrBcmUP075xyz-31" style="edgeStyle=orthogonalEdgeStyle;rounded=0;orthogonalLoop=1;jettySize=auto;html=1;curved=0;exitX=1;exitY=1;exitDx=0;exitDy=-5;exitPerimeter=0;" edge="1" parent="1" source="L9iWD6KSrBcmUP075xyz-8" target="L9iWD6KSrBcmUP075xyz-30">
          <mxGeometry relative="1" as="geometry">
            <Array as="points">
              <mxPoint x="145" y="315" />
            </Array>
          </mxGeometry>
        </mxCell>
        <mxCell id="L9iWD6KSrBcmUP075xyz-32" value="Preenche as&amp;nbsp;&lt;div&gt;informações&lt;/div&gt;" style="edgeLabel;html=1;align=center;verticalAlign=middle;resizable=0;points=[];" connectable="0" vertex="1" parent="L9iWD6KSrBcmUP075xyz-31">
          <mxGeometry x="-0.0629" y="-1" relative="1" as="geometry">
            <mxPoint as="offset" />
          </mxGeometry>
        </mxCell>
        <mxCell id="L9iWD6KSrBcmUP075xyz-35" value="pag inicial" style="text;align=center;fontStyle=1;verticalAlign=middle;spacingLeft=3;spacingRight=3;strokeColor=none;rotatable=0;points=[[0,0.5],[1,0.5]];portConstraint=eastwest;html=1;fillColor=default;" vertex="1" parent="1">
          <mxGeometry x="475" y="120" width="80" height="20" as="geometry" />
        </mxCell>
      </root>
    </mxGraphModel>
  </diagram>
</mxfile>
